<svg width="360" height="360" viewBox="0 0 360 360" fill="none" xmlns="http://www.w3.org/2000/svg">
<path d="M293.333 0H66.6667C29.8477 0 0 29.8477 0 66.6667V293.333C0 330.152 29.8477 360 66.6667 360H293.333C330.152 360 360 330.152 360 293.333V66.6667C360 29.8477 330.152 0 293.333 0Z" fill="url(#paint0_linear_135_332)"/>
<path fill-rule="evenodd" clip-rule="evenodd" d="M128.193 88.9083C120.156 90.4733 113.709 94.8233 110.043 101.158C109.393 102.278 108.396 104.659 107.826 106.449C106.863 109.472 106.546 109.949 103.383 113.167C98.4795 118.154 94.2294 123.263 91.2394 127.767C85.2661 136.764 79.1528 151.495 76.8895 162.342C76.5028 164.195 76.0328 165.557 75.8461 165.37C75.6595 165.182 75.2928 164.015 75.0328 162.776C74.5861 160.64 74.6295 160.355 75.8495 157.305C79.1128 149.166 79.6128 142.332 77.4028 135.977C76.3828 133.036 73.5295 128.326 71.8495 126.804C71.0561 126.085 71.0028 126.092 69.9828 127.047C67.1828 129.673 64.1361 138.991 64.1395 144.926C64.1395 151.765 67.7128 159.086 72.4894 162.042C73.2328 162.501 74.3161 163.73 74.8994 164.773C75.9461 166.648 75.9528 166.716 75.4861 170.557C74.8661 175.702 74.8528 189.803 75.4695 194.343C75.7395 196.33 75.8794 198.034 75.7828 198.13C75.6861 198.227 75.2461 197.7 74.7995 196.961C74.1861 195.938 73.9361 194.592 73.7628 191.341C73.2928 182.514 69.8861 175.292 63.9128 170.464C61.3228 168.371 57.2428 166.176 55.6128 166.001C54.3294 165.862 54.0495 166.83 53.9995 171.594C53.9161 179.98 57.5395 188.477 63.2561 193.293C65.6461 195.306 69.9228 197.43 72.2061 197.736C74.0561 197.985 76.2128 199.819 76.5561 201.435C78.8061 212.032 82.8861 222.445 88.0461 230.754C97.0528 245.254 110.916 257.05 127.099 263.983L130.376 265.387L132.186 261.038C133.989 256.713 140.753 240.211 151.406 214.141C159.413 194.549 161.959 188.365 170.503 167.727C172.683 162.464 175.323 156.052 176.369 153.476L178.273 148.794L179.876 148.681L181.479 148.567L183.066 152.345C187.696 163.376 191.096 171.607 199.413 191.952C214.039 227.72 215.353 230.928 219.506 241.013C221.669 246.275 224.696 253.695 226.223 257.502C227.753 261.309 229.156 264.597 229.339 264.808C230.246 265.846 244.376 258.399 251.239 253.27C261.929 245.277 269.893 235.543 276.086 222.895C279.073 216.797 282.146 208.051 282.983 203.27C283.599 199.744 284.879 198.29 288.049 197.516C295.729 195.639 302.096 189.088 304.673 180.412C306.099 175.596 306.463 167.512 305.333 165.681C304.856 164.911 299.056 167.814 295.796 170.454C292.996 172.721 289.579 177.51 288.269 181.003C287.043 184.272 286.219 188.792 286.219 192.271C286.219 194.738 286.059 195.394 285.143 196.721C284.549 197.577 283.993 198.205 283.906 198.117C283.816 198.029 283.946 196.789 284.193 195.361C284.943 191.038 285.126 177.111 284.513 171.322L283.966 166.165L285.196 164.317C285.869 163.302 287.393 161.717 288.583 160.796C291.009 158.913 292.973 156.075 294.353 152.459C295.739 148.822 295.946 142.245 294.823 137.531C293.869 133.533 292.093 129.503 290.379 127.458C288.966 125.766 288.519 125.937 286.169 129.064C282.643 133.763 281.229 138.053 281.213 144.112C281.199 148.364 281.803 151.123 283.979 156.771C285.166 159.852 285.283 160.499 284.966 162.187C284.769 163.242 284.436 164.416 284.223 164.796C283.746 165.647 283.696 165.518 282.759 161.009C281.336 154.171 277.209 143.105 272.696 134.029C272.029 132.691 271.943 132.182 272.316 131.81C272.579 131.545 272.796 130.834 272.796 130.23C272.796 129.626 273.483 127.693 274.323 125.935C275.813 122.813 275.846 122.625 275.846 118.055C275.846 112.602 275.243 110.192 272.909 106.328C269.863 101.288 262.943 94.8476 260.573 94.8476C259.516 94.8476 259.279 95.8129 259.066 100.974C258.846 106.284 259.603 110.008 261.776 114.317C262.946 116.638 267.943 123.413 269.329 124.563C270.986 125.936 272.029 128.218 271.903 130.193L271.779 132.101L270.186 129.659C267.656 125.774 261.319 118.041 256.769 113.277C253.336 109.687 252.526 108.599 252.286 107.266C251.853 104.871 249.503 100.246 247.459 97.7803C242.739 92.0789 234.663 88.3333 227.089 88.3333C223.533 88.3333 220.356 88.9956 220.049 89.8009C219.743 90.6006 227.489 101.146 230.153 103.555C233.113 106.233 236.179 108.073 239.916 109.408C242.369 110.285 243.759 110.497 247.729 110.598L252.559 110.723L254.239 112.226C259.646 117.072 267.766 127.948 271.676 135.584C276.179 144.374 280.273 157.5 281.553 167.247C282.229 172.385 282.849 184.827 282.429 184.827C282.289 184.827 281.859 184.231 281.476 183.503C280.989 182.577 280.693 180.648 280.489 177.067C280.276 173.262 279.946 171.22 279.206 169.086C276.559 161.476 269.399 154.921 262.043 153.376C259.129 152.764 258.836 153.102 259.166 156.685C260.366 169.631 266.759 179.096 276.253 181.973C279.913 183.082 280.136 183.21 281.279 184.865C282.163 186.141 282.219 186.528 281.996 189.712C281.309 199.541 278.393 209.804 273.373 220.045L271.379 224.116L271.253 221.755C271.159 219.981 271.323 219.07 271.913 218.091C274.633 213.568 275.386 206.577 273.719 201.278C272.603 197.724 269.503 192.88 266.943 190.69C264.379 188.496 260.749 186.544 260.219 187.074C259.326 187.969 258.473 195.128 258.666 200.095C259.003 208.632 261.026 212.868 267.696 218.981C269.553 220.683 269.656 220.888 269.853 223.339C270.043 225.736 269.963 226.059 268.683 228.067C264.199 235.094 256.266 243.141 249.019 248.007C244.816 250.828 237.619 254.552 236.719 254.369C236.053 254.234 235.046 251.918 221.876 220.248C215.263 204.352 213.246 199.087 212.979 197.041C212.579 193.97 212.486 157.431 212.863 152.153L213.119 148.591H216.329H219.536L219.423 144.01L219.306 139.43L191.239 139.389C175.803 139.366 158.093 139.442 151.886 139.556L140.599 139.764V144.178V148.591H143.853H147.106V173.355V198.119L145.729 201.346C144.969 203.121 142.659 208.695 140.593 213.734C131.089 236.903 123.839 254.273 123.546 254.573C123.049 255.078 114.016 250.287 109.683 247.223C104.536 243.58 96.3128 235.336 92.8761 230.369C90.1995 226.502 90.1594 226.402 90.1594 223.775C90.1594 221.118 90.1661 221.1 92.0661 219.354C97.0028 214.818 99.7628 210.491 100.749 205.734C101.676 201.269 100.823 188.502 99.5061 187.116C98.8928 186.469 93.9995 189.615 91.6228 192.183C87.2128 196.951 85.2761 201.647 85.2794 207.568C85.2828 211.679 85.6728 213.323 87.5561 217.17C88.6495 219.405 88.9328 220.469 88.9094 222.259L88.8761 224.523L86.0795 218.862C81.7195 210.044 79.1361 200.966 77.9728 190.379C77.6561 187.51 77.6895 186.551 78.1328 185.697C79.0261 183.98 80.4495 182.939 82.6328 182.409C87.8828 181.133 93.9528 176.126 96.7528 170.765C99.3461 165.795 101.326 157.113 100.563 154.063C100.306 153.038 100.186 152.988 98.6028 153.242C96.0995 153.642 90.6828 156.342 88.0561 158.497C84.9828 161.018 81.9128 165.682 80.6128 169.798C79.7994 172.373 79.5794 173.938 79.5661 177.214C79.5494 180.802 79.4128 181.615 78.5661 183.198L77.5861 185.03L77.5728 179.941C77.5294 165.485 81.6995 148.677 88.7128 135.053C92.5628 127.567 98.1161 119.809 103.683 114.13L106.933 110.816L112.479 110.644C117.639 110.484 118.239 110.38 121.193 109.13C124.816 107.594 128.179 105.242 131.319 102.049C133.716 99.6096 139.786 91.1256 139.786 90.2109C139.786 88.7583 132.923 87.9873 128.193 88.9083ZM95.9061 96.7816C90.4528 100.476 85.2061 107.832 84.0495 113.417C83.2961 117.041 83.7095 121.826 85.0395 124.976C86.3961 128.181 86.7928 129.285 87.1695 130.88C87.4461 132.052 87.4661 132.028 87.7095 130.269C88.0528 127.809 88.8095 126.514 91.8828 123.144C96.9428 117.593 99.5094 112.707 100.566 106.595C101.456 101.47 100.753 94.8476 99.3228 94.8476C99.0161 94.8476 97.4761 95.7176 95.9061 96.7816ZM243.509 103.119C243.509 103.218 244.929 104.36 246.663 105.656C248.396 106.952 249.483 107.634 249.076 107.171C248.309 106.295 243.509 102.802 243.509 103.119ZM112.603 105.415C111.486 106.3 110.426 107.257 110.249 107.54C110.076 107.823 111.066 107.163 112.453 106.073C113.839 104.984 114.973 104.027 114.973 103.948C114.973 103.616 114.533 103.889 112.603 105.415ZM132.056 117.438V122.117L179.953 122.02L227.849 121.923V117.444V112.966L179.953 112.862L132.056 112.759V117.438ZM108.839 121.338C105.949 121.764 101.509 123.434 99.0228 125.032C96.7761 126.474 93.4328 130.008 92.0061 132.446C91.4628 133.376 90.2661 135.969 89.3495 138.209C88.1095 141.233 87.2928 142.619 86.1728 143.597C84.5861 144.987 84.8061 145.415 86.4995 144.227C87.2195 143.724 88.4461 143.505 90.8928 143.446C95.1695 143.343 97.7828 142.729 101.183 141.028C106.303 138.467 111.083 132.916 113.956 126.196C115.789 121.906 115.783 121.485 113.853 121.166C112.109 120.878 111.923 120.885 108.839 121.338ZM244.833 121.174C243.949 121.531 244.259 122.565 246.779 127.688C248.786 131.764 249.789 133.269 252.263 135.897C257.009 140.949 262.216 143.298 268.663 143.298C271.749 143.298 272.256 143.409 273.496 144.357C275.559 145.931 275.566 145.248 273.513 143.019C272.256 141.656 271.409 140.19 270.729 138.209C269.426 134.418 265.609 128.736 262.926 126.592C260.276 124.474 256.033 122.305 252.983 121.51C250.776 120.935 245.919 120.735 244.833 121.174ZM136.123 130.676V134.751L179.953 134.648L223.783 134.544V130.676V126.808L179.953 126.705L136.123 126.601V130.676ZM266.696 138.159C266.696 138.243 267.016 138.564 267.406 138.871C268.053 139.377 268.066 139.363 267.559 138.717C267.029 138.039 266.696 137.824 266.696 138.159ZM154.023 164.551C154.023 173.995 154.169 180.353 154.386 180.124C154.586 179.911 155.596 177.788 156.623 175.405L158.496 171.073V159.832V148.591H156.259H154.023V164.551ZM166.226 150.911C166.226 153.534 166.563 153.452 167.813 150.525L168.636 148.591H167.429C166.236 148.591 166.226 148.611 166.226 150.911ZM191.669 149.507C191.826 150.011 192.196 150.881 192.496 151.441C193.016 152.416 193.039 152.378 193.056 150.525C193.069 148.836 192.963 148.591 192.229 148.591C191.546 148.591 191.443 148.761 191.669 149.507ZM201.416 148.988C201.266 149.23 201.253 154.392 201.383 160.461L201.623 171.496L203.589 176.183C204.676 178.761 205.633 180.707 205.723 180.508C205.813 180.308 205.883 173.091 205.883 164.469V148.794L203.786 148.673C202.593 148.603 201.569 148.74 201.416 148.988ZM179.283 173.632C178.603 176.333 169.609 200.291 167.173 205.896C166.996 206.297 169.673 206.405 179.796 206.405H192.643L191.483 203.25C190.843 201.514 189.363 197.713 188.196 194.802C185.209 187.359 180.839 175.597 180.263 173.461L179.779 171.662L179.283 173.632ZM289.016 192.053C288.509 192.699 288.523 192.713 289.169 192.207C289.846 191.675 290.063 191.341 289.726 191.341C289.643 191.341 289.323 191.662 289.016 192.053ZM179.646 192.62C179.646 192.726 179.099 194.314 178.433 196.149L177.216 199.484H179.846H182.476L181.239 196.135C180.133 193.127 179.646 192.057 179.646 192.62ZM161.656 220.554C160.629 223.184 157.649 230.834 155.039 237.552C152.429 244.27 148.563 254.056 146.446 259.3C143.926 265.545 142.753 268.928 143.043 269.108C143.286 269.259 145.169 269.697 147.229 270.083C149.286 270.469 151.266 270.87 151.629 270.973C152.066 271.098 152.436 270.781 152.733 270.032C152.976 269.41 156.093 261.298 159.656 252.005C163.219 242.712 167.106 232.678 168.286 229.707L170.439 224.305L179.959 224.414L189.479 224.523L192.643 232.462C196.686 242.611 205.036 264.351 206.356 268.173C207.366 271.094 207.376 271.107 208.659 270.879C211.956 270.295 217.069 269.01 217.073 268.766C217.076 268.617 212.363 256.636 206.599 242.142L196.123 215.789L179.826 215.779L163.529 215.77L161.656 220.554Z" fill="url(#paint1_linear_135_332)"/>
<defs>
<linearGradient id="paint0_linear_135_332" x1="335" y1="17.3333" x2="15.6667" y2="343.333" gradientUnits="userSpaceOnUse">
<stop stop-color="#9D6EC9"/>
<stop offset="1" stop-color="#6917B5"/>
</linearGradient>
<linearGradient id="paint1_linear_135_332" x1="179.999" y1="88.3333" x2="179.999" y2="271" gradientUnits="userSpaceOnUse">
<stop stop-color="#FDF751"/>
<stop offset="1" stop-color="#EDEB9E"/>
</linearGradient>
</defs>
</svg>
